# xmcd
#
# Track frame offsets: 
#        150
#        12950
#        27160
#        40230
#        52095
#        68725
#        84430
#        97147
#        111220
#        125562
#        140410
#        160927
#        174872
#        190922
#        211650
#
# Disc length: 3022 seconds
#
# Revision: 4
# Processed by: cddbd v1.5.2PL0 Copyright (c) Steve Scherf et al.
# Submitted via: ExactAudioCopy v0.95b4
#
DISCID=c80bcc0f
DTITLE=Home Groan - Home Groan
DYEAR=1997
DGENRE=Organic Rock
TTITLE0=The Eastern Line
TTITLE1=Hope
TTITLE2=Freeze Frame
TTITLE3=Anniversary Day
TTITLE4=Breath Of A Whisper
TTITLE5=Tropical Storm
TTITLE6=Separation
TTITLE7=Leave My Guitar Alone
TTITLE8=Northern Wind
TTITLE9=River Of Blight
TTITLE10=Cheyenne
TTITLE11=Roller Coaster Baby
TTITLE12=Marlene
TTITLE13=Rock'n Roll
TTITLE14=Home Is That Place Within (Hidden Track)
EXTD=
EXTT0=
EXTT1=
EXTT2=
EXTT3=
EXTT4=
EXTT5=
EXTT6=
EXTT7=
EXTT8=
EXTT9=
EXTT10=
EXTT11=
EXTT12=
EXTT13=
EXTT14=
PLAYORDER=
